<svg width="35" height="35" viewBox="0 0 35 35" fill="none" xmlns="http://www.w3.org/2000/svg">
<rect width="35" height="35" rx="17.5" fill="#75B855"/>
<path d="M21.3334 25.5V23.8333C21.3334 22.9493 20.9822 22.1014 20.3571 21.4763C19.732 20.8512 18.8841 20.5 18.0001 20.5H13.0001C12.116 20.5 11.2682 20.8512 10.6431 21.4763C10.0179 22.1014 9.66675 22.9493 9.66675 23.8333V25.5" stroke="white" stroke-linecap="round" stroke-linejoin="round"/>
<path d="M15.5001 17.1667C17.341 17.1667 18.8334 15.6743 18.8334 13.8333C18.8334 11.9924 17.341 10.5 15.5001 10.5C13.6591 10.5 12.1667 11.9924 12.1667 13.8333C12.1667 15.6743 13.6591 17.1667 15.5001 17.1667Z" stroke="white" stroke-linecap="round" stroke-linejoin="round"/>
<path d="M23.8333 14.6667V19.6667" stroke="white" stroke-linecap="round" stroke-linejoin="round"/>
<path d="M26.3333 17.1667H21.3333" stroke="white" stroke-linecap="round" stroke-linejoin="round"/>
</svg>
