<svg width="20" height="20" viewBox="0 0 20 20" fill="none" xmlns="http://www.w3.org/2000/svg">
<path d="M13.3333 18.3333H15C15.4167 18.3333 15.8333 18.1667 16.1667 17.8333C16.5 17.5 16.6667 17.0833 16.6667 16.6667V6.24999L12.0833 1.66666H4.99999C4.58333 1.66666 4.16666 1.83332 3.83333 2.16666C3.49999 2.49999 3.33333 2.91666 3.33333 3.33332V5.83332" stroke="black" stroke-linecap="round" stroke-linejoin="round"/>
<path d="M11.6667 1.66666V6.66666H16.6667" stroke="black" stroke-linecap="round" stroke-linejoin="round"/>
<path d="M6.66667 18.3333C9.4281 18.3333 11.6667 16.0948 11.6667 13.3333C11.6667 10.5719 9.4281 8.33334 6.66667 8.33334C3.90525 8.33334 1.66667 10.5719 1.66667 13.3333C1.66667 16.0948 3.90525 18.3333 6.66667 18.3333Z" stroke="black" stroke-linecap="round" stroke-linejoin="round"/>
<path d="M7.91667 14.5833L6.66667 13.5417V11.6667" stroke="black" stroke-linecap="round" stroke-linejoin="round"/>
</svg>
